<!DOCTYPE svg PUBLIC "-//W3C//DTD SVG 1.1//EN" "http://www.w3.org/Graphics/SVG/1.1/DTD/svg11.dtd">

<!-- Uploaded to: SVG Repo, www.svgrepo.com, Transformed by: SVG Repo Mixer Tools -->
<svg fill="#000000" height="800px" width="800px" version="1.1" id="Layer_1" xmlns="http://www.w3.org/2000/svg" xmlns:xlink="http://www.w3.org/1999/xlink" viewBox="0 0 512 512" xml:space="preserve">

<g id="SVGRepo_bgCarrier" stroke-width="0"/>

<g id="SVGRepo_tracerCarrier" stroke-linecap="round" stroke-linejoin="round"/>

<g id="SVGRepo_iconCarrier"> <g> <g> <path d="M472.578,108.173c21.737,0,39.422-17.815,39.422-39.712c0-21.898-17.684-39.712-39.422-39.712 c-4.328,0-7.837,3.509-7.837,7.837s3.509,7.837,7.837,7.837c13.096,0,23.748,10.784,23.748,24.04s-10.653,24.039-23.748,24.039 h-44.22V33.877c0-8.412-4.696-15.981-12.255-19.752c-3.072-1.532-6.513-2.343-9.95-2.343c-4.799,0-9.373,1.503-13.227,4.347 L293.69,89.345c-2.128-4.333-6.574-7.331-11.719-7.331h-51.945c-5.145,0-9.591,2.998-11.719,7.331L187.51,66.623 c-3.482-2.569-8.388-1.83-10.959,1.654c-2.569,3.483-1.83,8.388,1.654,10.959l38.762,28.599v15.347H99.315V33.877 c0-2.431,1.371-4.626,3.573-5.724c2.194-1.093,4.924-0.854,6.881,0.589l46.493,34.303c3.483,2.569,8.388,1.83,10.959-1.654 c2.569-3.483,1.83-8.39-1.654-10.959l-46.494-34.303c-3.855-2.843-8.428-4.347-13.226-4.347c-3.432,0-6.871,0.809-9.95,2.343 c-7.559,3.77-12.255,11.339-12.255,19.752V92.5h-44.22c-13.096,0-23.748-10.783-23.748-24.038 c0-13.256,10.653-24.039,23.747-24.039c4.328,0,7.837-3.509,7.837-7.837c0-4.328-3.509-7.837-7.837-7.837 C17.684,28.748,0,46.564,0,68.462c0,21.898,17.684,39.712,39.421,39.712h44.22v15.008H34.67c-7.203,0-13.061,5.859-13.061,13.061 v273.15c0,7.201,5.859,13.061,13.061,13.061H45.18v64.702c0,7.203,5.859,13.061,13.061,13.061h395.516 c7.203,0,13.061-5.859,13.061-13.061v-64.702h10.511c7.203,0,13.061-5.86,13.061-13.061v-34.275c0-4.328-3.509-7.837-7.837-7.837 c-4.328,0-7.837,3.509-7.837,7.837v31.661H316.266V285.257c0-4.328-3.509-7.837-7.837-7.837c-4.328,0-7.837,3.509-7.837,7.837 v121.524h-89.183V138.854h89.183V251.82c0,4.328,3.509,7.837,7.837,7.837c4.328,0,7.837-3.509,7.837-7.837V138.854h158.453 v203.872c0,4.328,3.509,7.837,7.837,7.837c4.328,0,7.837-3.509,7.837-7.837V136.242c0-7.203-5.859-13.061-13.061-13.061h-48.972 v-15.008H472.578z M302.271,422.453h148.874v62.09H302.271V422.453z M225.402,422.453L225.402,422.453h61.196v62.09h-61.196 V422.453z M37.282,406.78V138.854h158.454V406.78H37.282z M209.729,484.544H60.854v-62.09h148.875V484.544z M279.36,123.181 h-46.721V97.689h15.524v10.981c0,4.328,3.509,7.837,7.837,7.837c4.328,0,7.837-3.509,7.837-7.837V97.689h15.523V123.181z M295.033,123.181v-15.347l107.198-79.091c1.957-1.444,4.693-1.679,6.875-0.591c2.207,1.1,3.577,3.295,3.577,5.726v89.304H295.033 z"/> </g> </g> </g>

</svg>